<svg width="101" height="101" viewBox="0 0 101 101" fill="none" xmlns="http://www.w3.org/2000/svg">
<path d="M50.5394 21.4625C51.3284 21.4625 51.9991 20.7918 51.9991 20.0027V15.6234H53.4194C54.2085 15.6234 54.8792 14.9527 54.8792 14.1637V5.40508C54.8792 4.61602 54.2085 3.94531 53.4194 3.94531H47.5804C46.7913 3.94531 46.1206 4.61602 46.1206 5.40508V14.1637C46.1206 14.9527 46.7913 15.6234 47.5804 15.6234H49.0796V20.0027C49.0796 20.8313 49.7503 21.4625 50.5394 21.4625ZM49.0401 6.86484H51.9597V12.7039H49.0401V6.86484Z" fill="black"/>
<path d="M17.7146 96.8969C17.9513 97.0152 18.1486 97.0547 18.3853 97.0547C18.8982 97.0547 19.4111 96.7785 19.6872 96.2656L32.2333 72.3965C37.8751 75.2371 44.1087 76.7363 50.579 76.7363C57.0493 76.7363 63.2829 75.1977 68.8853 72.3965L81.3919 96.2656C81.6681 96.7785 82.181 97.0547 82.6939 97.0547C82.9306 97.0547 83.1673 97.0152 83.3646 96.8969C84.0747 96.5023 84.3509 95.6344 83.9958 94.9242L71.4103 71.0156C74.2904 69.2797 77.0126 67.2281 79.4587 64.782C82.2993 61.9414 82.2993 57.2859 79.4587 54.4453C76.697 51.6836 71.8837 51.6836 69.122 54.4453C67.7411 55.8262 66.2025 57.0098 64.6243 58.0355L57.72 44.8977C60.4029 42.7672 62.1388 39.532 62.1388 35.8629C62.1388 29.4715 56.931 24.2637 50.5396 24.2637C44.1482 24.2637 38.9404 29.4715 38.9404 35.8629C38.9404 39.532 40.6763 42.7672 43.3197 44.8977L36.4154 58.0355C34.8372 57.0098 33.2986 55.8262 31.9177 54.4453C29.156 51.6836 24.3427 51.6836 21.581 54.4453C18.7404 57.2859 18.7404 61.9414 21.581 64.782C24.0271 67.2281 26.7099 69.2402 29.59 70.9762L17.0044 94.9242C16.7282 95.6344 17.0044 96.5023 17.7146 96.8969ZM26.7888 55.2344C27.9724 55.2344 29.0771 55.7078 29.9056 56.5363C35.429 62.0598 42.7673 65.0582 50.579 65.0582C58.3907 65.0582 65.729 62.0203 71.2525 56.5363C72.9095 54.8793 75.7896 54.8793 77.4466 56.5363C79.1431 58.2328 79.1431 61.034 77.4466 62.7305C70.2661 69.9109 60.7579 73.8562 50.579 73.8562C40.4396 73.8562 30.8919 69.9109 23.7114 62.7305C22.015 61.034 22.015 58.2328 23.7114 56.5363C24.5005 55.7078 25.6052 55.2344 26.7888 55.2344ZM41.8599 35.8629C41.8599 31.0891 45.7657 27.1832 50.5396 27.1832C55.3134 27.1832 59.2193 31.0891 59.2193 35.8629C59.2193 40.6367 55.3134 44.5426 50.5396 44.5426C45.7657 44.5426 41.8599 40.6762 41.8599 35.8629ZM45.8447 46.4363C47.3044 47.0676 48.8825 47.4621 50.579 47.4621C52.2361 47.4621 53.8536 47.107 55.274 46.4363L62.0993 59.4559C58.5486 61.1918 54.6427 62.1387 50.579 62.1387C46.5154 62.1387 42.57 61.1918 39.0193 59.4559L45.8447 46.4363Z" fill="black"/>
</svg>
