<?xml version="1.0" encoding="UTF-8"?>
<svg id="Layer_2" data-name="Layer 2" xmlns="http://www.w3.org/2000/svg" viewBox="0 0 92.17 84.13">
  <defs>
    <style>
      .cls-1 {
        fill: none;
        stroke: #000;
        stroke-linecap: round;
        stroke-miterlimit: 10;
        stroke-width: 4px;
      }
    </style>
  </defs>
  <g id="Layer_1-2" data-name="Layer 1">
    <g>
      <path class="cls-1" d="M75.85,36.14l14.06,5.95c.35.15.35.65,0,.79l-43.82,18.31"/>
      <path class="cls-1" d="M75.85,57.08l14.06,5.95c.35.15.35.65,0,.79l-43.82,18.31"/>
      <path class="cls-1" d="M46.19,2l43.72,19.08c.35.15.35.65,0,.79l-43.82,18.69"/>
      <path class="cls-1" d="M16.32,36.14l-14.06,5.95c-.35.15-.35.65,0,.79l43.82,18.31"/>
      <path class="cls-1" d="M16.32,57.08l-14.06,5.95c-.35.15-.35.65,0,.79l43.82,18.31"/>
      <path class="cls-1" d="M45.98,2L2.26,21.08c-.35.15-.35.65,0,.79l43.82,18.69"/>
    </g>
  </g>
</svg>