<svg width="66" height="93" viewBox="0 0 66 93" fill="none" xmlns="http://www.w3.org/2000/svg">
<g clip-path="url(#clip0_6_244)">
<path d="M20.7711 74.4309C16.5807 72.9841 18.3249 68.9603 17.8296 65.797C17.2568 62.1157 11.5634 58.0534 9.22483 55.515C-13.592 30.8117 9.22483 -7.01153 41.5508 1.12586C63.7389 6.71203 73.2524 33.4828 59.8112 51.8166C56.9429 55.729 48.9626 61.4479 48.1013 65.8612C47.7266 67.7917 48.6612 71.0193 45.8661 71.3617C43.2261 71.6828 31.0727 68.468 31.0727 68.468C30.6118 68.3011 30.3276 67.8388 30.2587 67.3294C30.1123 66.2892 31.1459 65.4631 32.1666 65.7327C34.729 66.4134 43.2218 68.635 44.7593 68.6007C44.8885 68.6007 44.979 68.4852 44.966 68.361C44.5181 63.8921 47.4941 60.0867 50.3666 56.9875C51.706 55.5407 53.5363 54.3977 54.6948 53.1564C69.3548 37.4552 63.7087 12.2853 43.3769 4.87138C18.5833 -4.1735 -5.36192 21.0905 5.79671 45.2245C9.18607 52.5528 16.8003 56.3283 19.9399 62.8433C21.2448 65.553 20.517 70.3558 21.0682 71.1391" fill="black"/>
<path d="M21.2462 78.3076C20.3634 78.1044 19.4821 78.6501 19.2779 79.5264C19.0737 80.4027 19.6239 81.2779 20.5067 81.4811L42.2317 86.4822C43.1146 86.6855 43.9958 86.1398 44.2 85.2634C44.4042 84.3871 43.854 83.5119 42.9712 83.3087L21.2462 78.3076Z" fill="black"/>
<path d="M20.4309 86.6494L20.43 86.6536C20.2448 87.4481 20.7428 88.2415 21.5422 88.4255L41.2701 92.9668C42.0695 93.1509 42.8677 92.6559 43.0528 91.8613L43.0538 91.8572C43.2389 91.0626 42.741 90.2693 41.9415 90.0852L22.2137 85.5439C21.4143 85.3599 20.6161 85.8548 20.4309 86.6494Z" fill="black"/>
<path d="M43.5189 79.6532L20.6848 74.3966C19.7589 74.1826 19.1818 73.2623 19.3971 72.342C19.6125 71.4216 20.0733 70.8052 20.9992 71.0193L44.2941 76.3186C45.22 76.5326 45.7971 77.453 45.5818 78.3733C45.3664 79.2936 44.4405 79.8672 43.5146 79.6532H43.5189Z" fill="black"/>
</g>
<defs>
<clipPath id="clip0_6_244">
<rect width="66" height="93" fill="white"/>
</clipPath>
</defs>
</svg>
