<?xml version="1.0" encoding="UTF-8"?>
<svg id="Layer_2" data-name="Layer 2" xmlns="http://www.w3.org/2000/svg" viewBox="0 0 253.2 295.44">
  <defs>
    <style>
      .cls-1 {
        fill: #fff;
      }
    </style>
  </defs>
  <g id="Layer_1-2" data-name="Layer 1">
    <g>
      <rect class="cls-1" x=".24" y="285.36" width="210.72" height="10.08"/>
      <path class="cls-1" d="M221.28,0c-.26,2.92.35,6.41.01,9.25-.04.35-.03.62-.37.83H56.64V0h164.64Z"/>
      <rect class="cls-1" y="44.4" width="82.8" height="10.32"/>
      <path class="cls-1" d="M253.2,55.2v.72l-2.4,5.28c-2.69-1.13-5.82-.55-7.54,1.93-.28.4-1.1,2.12-1.1,2.5v12.36h-6.48v-22.8h4.92c.7.39.62,2.42,1.44,2.4.19,0,.15-.39.38-.58,2.96-2.49,7.15-2.79,10.79-1.83Z"/>
      <path class="cls-1" d="M153.36,108.96v24.72h-27.24l-.36.36v66.6h-25.44v-66.96h-17.52v-24.72h17.52c.05-14.55-1.15-28.73,4.45-42.47,9.09-22.33,34.11-33.12,55.86-20.84,3.8,2.14,7.93,5.4,10.46,8.92l-19.07,16.71-.35-.1c-5.16-6.66-15.1-6.56-20.39,0-4.32,5.35-5.3,13.95-5.54,20.62-.16,4.5-.5,12.08,0,16.34.04.35.03.62.37.83h27.24Z"/>
      <path class="cls-1" d="M56.88,132.72v104.29c-.55,13.55-7.43,27.63-20.64,32.63-6.38,2.41-12.51,1.77-19.2,1.8v-22.56h6.6c.14,0,1.61-.24,1.86-.3,5.41-1.18,6.8-7.29,7.13-12.07v-103.8h24.24Z"/>
      <polygon class="cls-1" points="163.92 232.56 163.92 242.64 75.72 242.64 75.36 242.28 75.36 232.56 163.92 232.56"/>
      <rect class="cls-1" x="32.4" y="82.8" width="24.24" height="26.16"/>
      <path class="cls-1" d="M189.36,136.32v19.2h-6.24v-39.36h5.76l.6,2.4c8.94-7.93,22.67,0,19.97,11.81-2.05,8.93-13.42,12.04-20.09,5.95ZM201.03,131.91c5.47-5.47-2.44-14.43-8.08-9.16-6,5.59,2.32,14.93,8.08,9.16Z"/>
      <path class="cls-1" d="M234.48,271.44v-1.92s-3.53,1.86-3.53,1.86c-9.7,3.44-19-5.76-15.54-15.54,2.31-6.53,10.09-9.48,16.36-6.77,1.11.48,1.89,1.24,2.96,1.72l.6-2.16h4.56l.36.36v22.44h-5.76ZM226.5,253.98c-6.42,1.1-6.23,11.3-.04,12.16,9.56,1.32,9.03-13.7.04-12.16Z"/>
      <path class="cls-1" d="M224.88,78v-1.92c-1.39.46-2.55,1.47-3.95,1.93-9.52,3.14-18.37-5.55-15.42-15.18,2.5-8.17,12.88-10.78,19.37-5.47l.48-2.16h5.04v22.8h-5.52ZM216.66,60.54c-1.56.27-3.09,1.49-3.88,2.84-3.33,5.76,3.3,12.14,8.48,8.24s1.89-12.2-4.6-11.08Z"/>
      <path class="cls-1" d="M220.08,210.48v-1.92c-.11-.13-2.25,1.38-2.64,1.56-6.9,3.11-15.39-.71-16.97-8.23-2.44-11.56,10.46-18.99,19.61-12.05l.48-1.92h5.04v22.56h-5.52ZM212.34,193.02c-7.42.9-6.47,12.62.89,12.43,8.03-.21,7.39-13.43-.89-12.43Z"/>
      <path class="cls-1" d="M249.12,138.96h-6.48v-12.6c0-2.53-3.39-5.07-5.89-4.93-2.43.14-5.15,3.05-5.15,5.41v12.12h-6.48v-22.8h5.16l1.08,1.92c6.5-5.44,15.45-1.6,17.35,6.29.09.37.41,1.76.41,1.99v12.6Z"/>
      <polygon class="cls-1" points="193.92 179.52 193.92 187.92 199.2 187.92 199.2 193.92 193.92 193.92 193.92 210.48 187.2 210.48 187.2 193.92 182.4 193.92 182.4 187.92 187.2 187.92 187.2 179.52 193.92 179.52"/>
      <path class="cls-1" d="M199.92,71.04l2.66,5.37c-6.51,4.55-16.49,1.88-19.22-5.72-4.19-11.68,9.75-20.68,19.34-13.81l-2.9,5.29c-4.96-4.41-13.35.7-10.2,7.09,1.86,3.77,7.26,4.66,10.32,1.79Z"/>
      <path class="cls-1" d="M187.56,248.64l1.2,2.64c2.54-3.34,7.58-3.6,11.4-2.64l-2.4,6c-2.86-1.04-5.7-.63-7.54,1.94-.27.38-1.1,1.92-1.1,2.26v12.6h-6.48v-22.8h4.92Z"/>
      <rect class="cls-1" x="214.08" y="116.16" width="6.72" height="22.8"/>
      <rect class="cls-1" x="204.24" y="248.64" width="6.72" height="22.8"/>
      <rect class="cls-1" x="204.24" y="234.48" width="6.72" height="7.44"/>
      <rect class="cls-1" x="214.08" y="102" width="6.72" height="7.2"/>
    </g>
  </g>
</svg>