<svg width="68" height="79" viewBox="0 0 68 79" fill="none" xmlns="http://www.w3.org/2000/svg">
<g clip-path="url(#clip0_30_14)">
<path d="M56.6559 76.3046H0.0644531V79H56.6559V76.3046Z" fill="#8C8C8C"/>
<path d="M59.4275 0C59.3577 0.780801 59.5215 1.71402 59.4302 2.47343C59.4195 2.56702 59.4222 2.63922 59.3309 2.69537H15.2114V0H59.4275Z" fill="#8C8C8C"/>
<path d="M22.237 11.8725H0V14.632H22.237V11.8725Z" fill="#8C8C8C"/>
<path d="M67.9999 14.7603V14.9529L67.3553 16.3647C66.6329 16.0626 65.7923 16.2177 65.3304 16.8808C65.2552 16.9878 65.035 17.4477 65.035 17.5493V20.8543H63.2947V14.7577H64.616C64.804 14.862 64.7825 15.4048 65.0027 15.3994C65.0538 15.3994 65.043 15.2951 65.1048 15.2443C65.8997 14.5785 67.025 14.4983 68.0026 14.755L67.9999 14.7603Z" fill="#C2C2C2"/>
<path d="M41.1868 29.1357V35.7457H33.8712L33.7745 35.842V53.6507H26.9423V35.7457H22.2371V29.1357H26.9423C26.9557 25.245 26.6334 21.4533 28.1374 17.7793C30.5786 11.8083 37.298 8.92305 43.1393 12.2067C44.1598 12.7789 45.269 13.6506 45.9484 14.5919L40.827 19.0601L40.733 19.0334C39.3472 17.2525 36.6777 17.2792 35.257 19.0334C34.0968 20.4639 33.8336 22.7636 33.7691 24.5471C33.7262 25.7504 33.6348 27.7773 33.7691 28.9164C33.7799 29.01 33.7772 29.0822 33.8685 29.1383H41.1841L41.1868 29.1357Z" fill="#C2C2C2"/>
<path d="M15.2759 35.489V63.3759C15.1282 66.9992 13.2805 70.7642 9.73281 72.1011C8.01939 72.7456 6.3731 72.5744 4.57642 72.5825V66.55H6.34893C6.38653 66.55 6.78131 66.4858 6.84845 66.4697C8.30138 66.1542 8.67468 64.5204 8.7633 63.2422V35.4864H15.2733L15.2759 35.489Z" fill="#C2C2C2"/>
<path d="M44.0227 62.186V64.8814H20.3355L20.2388 64.7851V62.186H44.0227Z" fill="#8C8C8C"/>
<path d="M15.2114 22.1405H8.70142V29.1357H15.2114V22.1405Z" fill="#C2C2C2"/>
<path d="M50.855 36.4517V41.5857H49.1792V31.0609H50.7261L50.8873 31.7027C53.2882 29.5822 56.9756 31.7027 56.2504 34.8606C55.6999 37.2485 52.6463 38.0801 50.855 36.4517ZM53.9892 35.2724C55.4582 33.8098 53.3339 31.4139 51.8192 32.8231C50.2078 34.3178 52.4422 36.8153 53.9892 35.2724Z" fill="#C2C2C2"/>
<path d="M62.9725 72.5825V72.0691L62.0245 72.5664C59.4194 73.4863 56.9218 71.0262 57.851 68.4111C58.4714 66.6649 60.5608 65.8761 62.2447 66.6008C62.5428 66.7291 62.7523 66.9323 63.0396 67.0607L63.2008 66.4831H64.4254L64.5221 66.5794V72.5798H62.9752L62.9725 72.5825ZM60.8294 67.9137C59.1052 68.2078 59.1562 70.9353 60.8186 71.1653C63.3861 71.5182 63.2438 67.5019 60.8294 67.9137Z" fill="#C2C2C2"/>
<path d="M60.3944 20.857V20.3436C60.0211 20.4666 59.7095 20.7367 59.3336 20.8597C56.7768 21.6993 54.4001 19.3756 55.1923 16.8006C55.8637 14.616 58.6514 13.9181 60.3944 15.3379L60.5233 14.7604H61.8768V20.857H60.3944ZM58.1868 16.1883C57.7678 16.2605 57.3569 16.5867 57.1448 16.9477C56.2505 18.4879 58.031 20.1939 59.4222 19.151C60.8133 18.1082 59.9298 15.8888 58.1868 16.1883Z" fill="#C2C2C2"/>
<path d="M59.1053 56.2819V55.7685C59.0757 55.7337 58.501 56.1375 58.3963 56.1856C56.5432 57.0172 54.2631 55.9958 53.8388 53.9849C53.1835 50.8938 56.6479 48.9071 59.1053 50.7628L59.2342 50.2494H60.5878V56.2819H59.1053ZM57.0266 51.6131C55.0339 51.8538 55.289 54.9877 57.2656 54.9369C59.4222 54.8807 59.2503 51.3457 57.0266 51.6131Z" fill="#C2C2C2"/>
<path d="M66.9042 37.1576H65.164V33.7884C65.164 33.1119 64.2535 32.4327 63.5821 32.4701C62.9107 32.5076 62.199 33.2857 62.199 33.9167V37.1576H60.4587V31.0609H61.8445L62.1346 31.5743C63.8802 30.1197 66.2839 31.1465 66.7941 33.2563C66.8183 33.3552 66.9042 33.7269 66.9042 33.7884V37.1576Z" fill="#C2C2C2"/>
<path d="M52.0797 48.0032V50.2494H53.4977V51.8538H52.0797V56.2819H50.2749V51.8538H48.9858V50.2494H50.2749V48.0032H52.0797Z" fill="#C2C2C2"/>
<path d="M53.691 18.9959L54.4054 20.4319C52.657 21.6485 49.9768 20.9346 49.2436 18.9024C48.1183 15.7792 51.8621 13.3726 54.4376 15.2096L53.6588 16.6241C52.3267 15.4449 50.0735 16.8113 50.9195 18.52C51.419 19.5281 52.8692 19.7661 53.691 18.9986V18.9959Z" fill="#C2C2C2"/>
<path d="M50.3716 66.4858L50.6939 67.1917C51.376 66.2986 52.7296 66.2291 53.7555 66.4858L53.111 68.0902C52.3429 67.8121 51.5802 67.9217 51.086 68.6089C51.0135 68.7105 50.7906 69.1223 50.7906 69.2132V72.5824H49.0503V66.4858H50.3716Z" fill="#C2C2C2"/>
<path d="M59.2986 31.0609H57.4939V37.1576H59.2986V31.0609Z" fill="#C2C2C2"/>
<path d="M56.6558 66.4858H54.8511V72.5824H56.6558V66.4858Z" fill="#C2C2C2"/>
<path d="M56.6558 62.6994H54.8511V64.6889H56.6558V62.6994Z" fill="#C2C2C2"/>
<path d="M59.2986 27.2746H57.4939V29.1998H59.2986V27.2746Z" fill="#C2C2C2"/>
</g>
<defs>
<clipPath id="clip0_30_14">
<rect width="68" height="79" fill="white"/>
</clipPath>
</defs>
</svg>
