<?xml version="1.0" encoding="UTF-8"?>
<svg id="Layer_1" xmlns="http://www.w3.org/2000/svg" version="1.1" xmlns:xlink="http://www.w3.org/1999/xlink" viewBox="0 0 235.4 79">
  <!-- Generator: Adobe Illustrator 29.1.0, SVG Export Plug-In . SVG Version: 2.1.0 Build 142)  -->
  <defs>
    <style>
      .st0 {
        fill: #9b9b9b;
      }

      .st1 {
        fill: none;
      }

      .st2 {
        fill: #666;
      }

      .st3 {
        font-family: Roboto-Bold, Roboto;
        font-size: 21.2px;
        font-weight: 700;
      }

      .st3, .st4 {
        fill: #8c8c8c;
      }

      .st5 {
        clip-path: url(#clippath);
      }
    </style>
    <clipPath id="clippath">
      <rect class="st1" width="68" height="79"/>
    </clipPath>
  </defs>
  <g class="st5">
    <g>
      <path class="st2" d="M56.7,76.3H0v2.7h56.6v-2.7Z"/>
      <path class="st2" d="M59.4,0c0,.8,0,1.7,0,2.5,0,0,0,.2,0,.2H15.2V0h44.2Z"/>
      <path class="st2" d="M22.2,11.9H0v2.8h22.2v-2.8Z"/>
      <path class="st0" d="M68,14.8v.2l-.6,1.4c-.7-.3-1.6-.1-2,.5,0,.1-.3.6-.3.7v3.3h-1.7v-6.1h1.3c.2.1.2.6.4.6,0,0,0-.1.1-.2.8-.7,1.9-.7,2.9-.5h0Z"/>
      <path class="st0" d="M41.2,29.1v6.6h-7.4v17.9h-6.8v-17.9h-4.7v-6.6h4.7c0-3.9-.3-7.7,1.2-11.4,2.4-6,9.2-8.9,15-5.6,1,.6,2.1,1.4,2.8,2.4l-5.1,4.5h0c-1.4-1.8-4.1-1.8-5.5,0-1.2,1.4-1.4,3.7-1.5,5.5,0,1.2-.1,3.2,0,4.4,0,0,0,.2,0,.2h7.3Z"/>
      <path class="st0" d="M15.3,35.5v27.9c-.1,3.6-2,7.4-5.5,8.7-1.7.6-3.4.5-5.2.5v-6h1.8s.4,0,.5,0c1.5-.3,1.8-1.9,1.9-3.2v-27.8h6.5Z"/>
      <path class="st2" d="M44,62.2v2.7h-23.8v-2.7h23.8Z"/>
      <path class="st0" d="M15.2,22.1h-6.5v7h6.5v-7Z"/>
      <path class="st0" d="M50.9,36.5v5.1h-1.7v-10.5h1.5l.2.6c2.4-2.1,6.1,0,5.4,3.2-.6,2.4-3.6,3.2-5.4,1.6ZM54,35.3c1.5-1.5-.7-3.9-2.2-2.4-1.6,1.5.6,4,2.2,2.4Z"/>
      <path class="st0" d="M63,72.6v-.5l-.9.5c-2.6.9-5.1-1.5-4.2-4.2.6-1.7,2.7-2.5,4.4-1.8.3.1.5.3.8.5l.2-.6h1.3v6.1h-1.5ZM60.8,67.9c-1.7.3-1.7,3,0,3.3,2.6.4,2.4-3.7,0-3.3Z"/>
      <path class="st0" d="M60.4,20.9v-.5c-.4.1-.7.4-1.1.5-2.6.8-4.9-1.5-4.1-4.1.7-2.2,3.5-2.9,5.2-1.5v-.6h1.5v6.1h-1.5ZM58.2,16.2c-.4,0-.8.4-1,.8-.9,1.5.9,3.2,2.3,2.2,1.4-1,.5-3.3-1.2-3Z"/>
      <path class="st0" d="M59.1,56.3v-.5s-.6.4-.7.4c-1.9.8-4.1-.2-4.6-2.2-.7-3.1,2.8-5.1,5.3-3.2v-.5h1.5v6h-1.5ZM57,51.6c-2,.2-1.7,3.4.2,3.3,2.2,0,2-3.6-.2-3.3Z"/>
      <path class="st0" d="M66.9,37.2h-1.7v-3.4c0-.7-.9-1.4-1.6-1.3-.7,0-1.4.8-1.4,1.4v3.2h-1.7v-6.1h1.4l.3.5c1.7-1.5,4.1-.4,4.7,1.7,0,0,.1.5.1.5v3.4Z"/>
      <path class="st0" d="M52.1,48v2.2h1.4v1.6h-1.4v4.4h-1.8v-4.4h-1.3v-1.6h1.3v-2.2h1.8Z"/>
      <path class="st0" d="M53.7,19l.7,1.4c-1.7,1.2-4.4.5-5.2-1.5-1.1-3.1,2.6-5.5,5.2-3.7l-.8,1.4c-1.3-1.2-3.6.2-2.7,1.9.5,1,1.9,1.2,2.8.5h0Z"/>
      <path class="st0" d="M50.4,66.5l.3.7c.7-.9,2-1,3.1-.7l-.6,1.6c-.8-.3-1.5-.2-2,.5,0,.1-.3.5-.3.6v3.4h-1.7v-6.1h1.3Z"/>
      <path class="st0" d="M59.3,31.1h-1.8v6.1h1.8v-6.1Z"/>
      <path class="st0" d="M56.7,66.5h-1.8v6.1h1.8v-6.1Z"/>
      <path class="st0" d="M56.7,62.7h-1.8v2h1.8v-2Z"/>
      <path class="st0" d="M59.3,27.3h-1.8v1.9h1.8v-1.9Z"/>
    </g>
  </g>
  <text class="st3" transform="translate(84 51.1)"><tspan x="0" y="0">Jomatefe</tspan></text>
  <path class="st4" d="M77.5,65.7V18.8h-1.4v46.9h1.4Z"/>
</svg>